<?xml version="1.0" encoding="UTF-8"?>
<svg xmlns="http://www.w3.org/2000/svg" xmlns:xlink="http://www.w3.org/1999/xlink" viewBox="-118.68 -294.68 1350.36 1350.36">
  <defs>
    <style>
      .cls-1 {
        fill: url(#linear-gradient-5);
      }

      .cls-1, .cls-2, .cls-3, .cls-4, .cls-5, .cls-6, .cls-7, .cls-8 {
        fill-rule: evenodd;
      }

      .cls-2 {
        fill: url(#linear-gradient-7);
      }

      .cls-3 {
        fill: url(#linear-gradient-8);
      }

      .cls-4 {
        fill: url(#linear-gradient-2);
      }

      .cls-5 {
        fill: url(#linear-gradient-3);
      }

      .cls-6 {
        fill: url(#linear-gradient-4);
      }

      .cls-7 {
        fill: url(#linear-gradient-6);
      }

                                          .cls-8 {
        fill: url(#linear-gradient);
      }
    </style>
    <linearGradient id="linear-gradient" x1="697.73" y1="368.55" x2="697.73" y2="-361.11" gradientTransform="translate(0 376.23) scale(1 -1)" gradientUnits="userSpaceOnUse">
      <stop offset="0" stop-color="#f7a15e"/>
      <stop offset=".42" stop-color="#f78b63"/>
      <stop offset=".72" stop-color="#f57070"/>
      <stop offset="1" stop-color="#f35f84"/>
    </linearGradient>
    <linearGradient id="linear-gradient-2" x1="894.03" y1="349.25" x2="894.03" y2="-343.21" xlink:href="#linear-gradient"/>
    <linearGradient id="linear-gradient-3" x1="671.92" y1="368.62" x2="671.92" y2="-362.15" xlink:href="#linear-gradient"/>
    <linearGradient id="linear-gradient-4" x1="901.32" y1="368.57" x2="901.32" y2="-361.17" xlink:href="#linear-gradient"/>
    <linearGradient id="linear-gradient-5" x1="316.15" y1="368.43" x2="316.15" y2="-325.86" xlink:href="#linear-gradient"/>
    <linearGradient id="linear-gradient-6" x1="436.44" y1="368.48" x2="436.44" y2="-361.43" xlink:href="#linear-gradient"/>
    <linearGradient id="linear-gradient-7" x1="146.45" y1="368.26" x2="146.45" y2="-361.72" xlink:href="#linear-gradient"/>
    <linearGradient id="linear-gradient-8" x1="144.93" y1="368.25" x2="144.93" y2="-361.79" xlink:href="#linear-gradient"/>
  </defs>
  <g id="Layer_1" data-name="Layer 1" shape-rendering="geometricPrecision">
    <g>
      <path class="cls-8" d="M454.52,269.03c-152.76,15.86-205.56,214.87-116.81,326.61,50.93,69.54,147.78,92.57,220.87,43.61,18.07-12.54,36.89-27.48,47.16-47.29,6.46-27-23.53-33.91-36.85-11.24-74.83,89.96-200.3,41.23-230.5-62.24-12.82-44.39-10.09-94.98,11.96-136.03,27.43-55.37,95.28-93.46,155.64-70.25,48.62,17.09,79.17,64.69,88.72,113.71,7.24,40.28,9.08,81.67,25.01,119.95,27.27,70.32,75.98,136.39,145.43,169.14,93.59,44.98,218.33,27.18,290.32-48.86,9.76-9.93,18.47-20.6,26.38-31.94,7.12-11.78,17.85-23.52,19-37.78.21-13.25-15.29-22.31-26.72-15.53-6.33,3.47-9.52,10.87-13.12,17.16-5.11,8.95-10.74,17.52-16.96,25.74-20.49,26.72-47.08,48.41-77.44,62.13-60.38,27.38-144.89,20.32-201.42-13.15-57.81-33.56-98.39-92.25-118.3-155.24-10.63-31.35-11.18-65.25-17.21-97.53-14.36-85.97-83.42-158.93-174.99-150.97h-.18Z"/>
      <path class="cls-4" d="M901.02,273.84c-102.03,7.9-161.31,93.1-150.17,191.02,2.6,20.51,11.28,53.3,28.7,65.71,10.04,5.74,24.12-1.27,24.96-13.01.89-10.35-7.51-18.36-10.51-27.78-18.61-49.9-7.53-102.82,26.66-142.64,36.32-42.74,94.84-51.06,145.17-23.63,10.79,5.53,21.15,13.3,29.93,22.49,8.78,9.53,16.77,23.92,32,17.46,6.38-2.6,10.6-9.23,10.77-15.98.35-8.06-5.11-14.52-10.13-20.46-14.52-16.97-32.71-30.17-52.9-39.59-23.07-10.38-48.83-15.37-74.3-13.59h-.19Z"/>
      <path class="cls-5" d="M458.25,199.02c-58.74,2.71-118.77,29.36-155.14,76.44-10.51,22.28,18.66,34.79,32.25,16.73,68.82-73.64,195.25-73.73,264.29-.38,35.35,36.76,54.19,85.26,62.47,134.85,5.59,40.82,10.84,81.94,30.39,119.01,41.86,90.86,165.25,151.41,261.18,108.76,37.12-16.11,67.22-46.62,86.17-82.18,14.34-30.45-24.99-41.96-35.68-12.03-47.32,85.09-164.15,90.8-233.38,28.67-79.23-69.9-60.27-139.61-88.35-227.19-28.21-96.26-122.72-168.49-224.02-162.69h-.19Z"/>
      <path class="cls-6" d="M903.96,197.47c-41.79,1.07-82.71,14.8-117.26,38.09-29.39,19.7-53.78,47.21-70.02,78.79-3.87,7.89-9.15,15.27-8.89,24.21.2,7.05,5.01,14.04,11.91,16.08,6.73,2.17,14.55-.16,19.1-5.68,5.33-6.82,8.23-15,12.92-22.31,7.02-12.08,15.27-23.42,24.74-33.64,26.84-28.69,63.34-48.35,101.89-55.47,19.17-3.77,39.03-3.62,58.3-.78,27.15,3.66,53.16,14.01,76.01,29.03,13.02,8.77,25.48,19.33,35.6,31.37,5.25,5.58,9.32,12.23,14.23,18,16.29,18,41.57-2.54,28.93-22.84-20.53-31.32-50.98-55.44-84.26-72.16-16.42-7.82-33.35-14.31-51.07-18.03-16.91-3.58-34.71-4.8-51.97-4.68h-.18Z"/>
      <path class="cls-1" d="M311.87,10.06c-20.37,5.14-13.23,30.14-14.66,45.71-.44,21.76.29,43.7-.03,65.46-.39,19.31.42,27.69.21,46.95-.23,7.81-.16,15.42.07,23.36,0,6.55-1.19,13.25,1.43,19.37,10.18,20.34,38.77,10,36.2-12.13-.11-60.18.22-109.37-.12-169.54.35-11.97-11.14-22.07-22.93-19.23l-.17.04Z"/>
      <path class="cls-7" d="M241.83,9.85c-12.29,2.46-16.05,15.82-15.38,27.01,0,145.44,0,290.88,0,436.32-.05,16.27-.35,32.68,2.29,48.73,17.4,117.93,125.92,221.56,248.18,215.56,45.67-.57,90.45-16.85,126.8-44.19,12.91-10.54,46.92-34.66,42.38-53.17-2.2-11.72-16.41-17.56-26.36-11.27-8.35,5.44-14.14,15.37-22.14,21.77-16.02,14.56-32.99,25.76-52.42,34.2-47.71,20.77-104.33,20.16-151.84-.84-66.3-29.1-115.98-92.86-126.53-164.7-2.43-19.35-.79-39.34-1.26-58.88-.08-102.42.05-204.83-.02-307.26.32-29.06-.41-58.11.03-87.16-1.35-19.84,7.73-59.69-23.56-56.16l-.16.03Z"/>
      <path class="cls-2" d="M100.84,9.25c-5.02,1.09-9.34,4.39-11.96,8.74-1.58,2.62-2.33,5.65-2.34,8.71-1.13,201.34-3.02,378.58.69,579.8.03,1.56.69,19.23.69,29.6,1.51,20.1,12.5,25.55,20.7,31.25,6.2,4.31,28.42,13.66,44.03,13.66,26.15,0,28.8-.08,31.27-.08,3.24,0,6.47-.49,9.57-1.4,6.43-1.76,11.88-6.56,13.57-13.03,3.25-11.08-3.68-24.9-15.1-24.9-10.31,0-27.12.39-35.79.39-4.15,0-8.32-.15-12.37-1.11-4.59-1.06-8.88-3.39-12.18-6.78-4.73-4.77-6.87-11.46-7.47-18.04-.04-.46-.06-.91-.07-1.37-2.96-196.02,3.73-393.18-2.23-588.73-.28-9.19-7.53-16.91-16.72-17.15-1.38-.04-2.77.09-4.12.4l-.16.04Z"/>
      <path class="cls-3" d="M27.81,9.23c-11.93,2.5-15.74,14.12-15.24,25.12,1.18,204.66-2.3,409.63,1.23,614.16.02,1.12.13,2.25.35,3.35,1.85,9.24,4.26,18.04,8.25,26.85,9.65,22.12,24.99,41.17,45.45,54.17,19.02,12.19,41.51,18.98,64.03,19.16,47.3,0-25.39,0,21.91,0,33.85-.04,67.71.08,101.56-.04,5.16-.13,10.58-1.02,14.8-4.12,14.55-11.03,6.6-33.2-11.41-33.66-84.73-1.34-50.78,1.37-134.34-1-.92-.03-1.84-.12-2.74-.28-11.58-1.72-23.17-8.29-39.22-18.04s-17.93-13.27-25.46-29.92c-2.81-6.38-3.95-13.94-5.06-20.78-.14-.87-.22-1.75-.24-2.63-4.13-204.64,2.25-410.07-2.2-614.6-.19-8.63-6.2-16.28-14.69-17.86-2.24-.42-4.56-.42-6.81.07l-.16.03Z"/>
    </g>
      </g>
</svg>